<mxfile host="app.diagrams.net" modified="2022-12-18T14:13:44.566Z" agent="5.0 (Macintosh; Intel Mac OS X 10_15_7) AppleWebKit/537.36 (KHTML, like Gecko) Chrome/108.0.0.0 Safari/537.36" etag="14gz8A_tFvBKgXkXPfO8" version="20.7.4" type="github">
  <diagram name="Page-1" id="74e2e168-ea6b-b213-b513-2b3c1d86103e">
    <mxGraphModel dx="954" dy="616" grid="1" gridSize="10" guides="1" tooltips="1" connect="1" arrows="1" fold="1" page="1" pageScale="1" pageWidth="1400" pageHeight="850" background="none" math="0" shadow="0">
      <root>
        <mxCell id="0" />
        <mxCell id="1" parent="0" />
        <mxCell id="wc7gYVsaRYlRubkSwobz-57" value="" style="edgeStyle=orthogonalEdgeStyle;rounded=0;orthogonalLoop=1;jettySize=auto;html=1;" edge="1" parent="1" source="wc7gYVsaRYlRubkSwobz-55" target="wc7gYVsaRYlRubkSwobz-58">
          <mxGeometry relative="1" as="geometry">
            <mxPoint x="240" y="220" as="targetPoint" />
          </mxGeometry>
        </mxCell>
        <mxCell id="wc7gYVsaRYlRubkSwobz-55" value="价格波动&lt;br&gt;（无限循环）" style="rounded=1;whiteSpace=wrap;html=1;" vertex="1" parent="1">
          <mxGeometry x="180" y="80" width="120" height="60" as="geometry" />
        </mxCell>
        <mxCell id="wc7gYVsaRYlRubkSwobz-60" value="" style="edgeStyle=orthogonalEdgeStyle;rounded=0;orthogonalLoop=1;jettySize=auto;html=1;" edge="1" parent="1" source="wc7gYVsaRYlRubkSwobz-58" target="wc7gYVsaRYlRubkSwobz-59">
          <mxGeometry relative="1" as="geometry" />
        </mxCell>
        <mxCell id="wc7gYVsaRYlRubkSwobz-63" value="是" style="edgeLabel;html=1;align=center;verticalAlign=middle;resizable=0;points=[];" vertex="1" connectable="0" parent="wc7gYVsaRYlRubkSwobz-60">
          <mxGeometry x="-0.0783" relative="1" as="geometry">
            <mxPoint as="offset" />
          </mxGeometry>
        </mxCell>
        <mxCell id="wc7gYVsaRYlRubkSwobz-61" style="edgeStyle=orthogonalEdgeStyle;rounded=0;orthogonalLoop=1;jettySize=auto;html=1;exitX=1;exitY=0.5;exitDx=0;exitDy=0;entryX=1;entryY=0.5;entryDx=0;entryDy=0;" edge="1" parent="1" source="wc7gYVsaRYlRubkSwobz-58" target="wc7gYVsaRYlRubkSwobz-55">
          <mxGeometry relative="1" as="geometry">
            <Array as="points">
              <mxPoint x="410" y="245" />
              <mxPoint x="410" y="110" />
            </Array>
          </mxGeometry>
        </mxCell>
        <mxCell id="wc7gYVsaRYlRubkSwobz-62" value="否" style="edgeLabel;html=1;align=center;verticalAlign=middle;resizable=0;points=[];" vertex="1" connectable="0" parent="wc7gYVsaRYlRubkSwobz-61">
          <mxGeometry x="-0.0507" relative="1" as="geometry">
            <mxPoint as="offset" />
          </mxGeometry>
        </mxCell>
        <mxCell id="wc7gYVsaRYlRubkSwobz-58" value="是否达到限价或止损价" style="rhombus;whiteSpace=wrap;html=1;" vertex="1" parent="1">
          <mxGeometry x="160" y="180" width="160" height="130" as="geometry" />
        </mxCell>
        <mxCell id="wc7gYVsaRYlRubkSwobz-65" value="" style="edgeStyle=orthogonalEdgeStyle;rounded=0;orthogonalLoop=1;jettySize=auto;html=1;" edge="1" parent="1" source="wc7gYVsaRYlRubkSwobz-59" target="wc7gYVsaRYlRubkSwobz-64">
          <mxGeometry relative="1" as="geometry" />
        </mxCell>
        <mxCell id="wc7gYVsaRYlRubkSwobz-59" value="生成trade" style="whiteSpace=wrap;html=1;" vertex="1" parent="1">
          <mxGeometry x="180" y="425" width="120" height="60" as="geometry" />
        </mxCell>
        <mxCell id="wc7gYVsaRYlRubkSwobz-64" value="生成/更新仓位" style="whiteSpace=wrap;html=1;" vertex="1" parent="1">
          <mxGeometry x="180" y="565" width="120" height="60" as="geometry" />
        </mxCell>
        <mxCell id="wc7gYVsaRYlRubkSwobz-78" style="edgeStyle=orthogonalEdgeStyle;rounded=0;orthogonalLoop=1;jettySize=auto;html=1;exitX=1;exitY=0.5;exitDx=0;exitDy=0;entryX=0;entryY=0.5;entryDx=0;entryDy=0;" edge="1" parent="1" source="wc7gYVsaRYlRubkSwobz-66" target="wc7gYVsaRYlRubkSwobz-67">
          <mxGeometry relative="1" as="geometry" />
        </mxCell>
        <mxCell id="wc7gYVsaRYlRubkSwobz-66" value="用户订单" style="ellipse;whiteSpace=wrap;html=1;" vertex="1" parent="1">
          <mxGeometry x="470" y="250" width="120" height="80" as="geometry" />
        </mxCell>
        <mxCell id="wc7gYVsaRYlRubkSwobz-81" style="rounded=0;orthogonalLoop=1;jettySize=auto;html=1;exitX=1;exitY=0.5;exitDx=0;exitDy=0;entryX=0;entryY=0.5;entryDx=0;entryDy=0;" edge="1" parent="1" source="wc7gYVsaRYlRubkSwobz-67" target="wc7gYVsaRYlRubkSwobz-76">
          <mxGeometry relative="1" as="geometry" />
        </mxCell>
        <mxCell id="wc7gYVsaRYlRubkSwobz-86" style="edgeStyle=none;rounded=0;orthogonalLoop=1;jettySize=auto;html=1;exitX=1;exitY=0.5;exitDx=0;exitDy=0;entryX=0;entryY=0.5;entryDx=0;entryDy=0;" edge="1" parent="1" source="wc7gYVsaRYlRubkSwobz-67" target="wc7gYVsaRYlRubkSwobz-83">
          <mxGeometry relative="1" as="geometry" />
        </mxCell>
        <mxCell id="wc7gYVsaRYlRubkSwobz-67" value="trade单" style="ellipse;whiteSpace=wrap;html=1;" vertex="1" parent="1">
          <mxGeometry x="680" y="250" width="120" height="80" as="geometry" />
        </mxCell>
        <mxCell id="wc7gYVsaRYlRubkSwobz-68" value="List" style="swimlane;fontStyle=0;childLayout=stackLayout;horizontal=1;startSize=30;horizontalStack=0;resizeParent=1;resizeParentMax=0;resizeLast=0;collapsible=1;marginBottom=0;whiteSpace=wrap;html=1;" vertex="1" parent="1">
          <mxGeometry x="470" y="330" width="140" height="120" as="geometry" />
        </mxCell>
        <mxCell id="wc7gYVsaRYlRubkSwobz-69" value="市价" style="text;strokeColor=none;fillColor=none;align=left;verticalAlign=middle;spacingLeft=4;spacingRight=4;overflow=hidden;points=[[0,0.5],[1,0.5]];portConstraint=eastwest;rotatable=0;whiteSpace=wrap;html=1;" vertex="1" parent="wc7gYVsaRYlRubkSwobz-68">
          <mxGeometry y="30" width="140" height="30" as="geometry" />
        </mxCell>
        <mxCell id="wc7gYVsaRYlRubkSwobz-70" value="限价" style="text;strokeColor=none;fillColor=none;align=left;verticalAlign=middle;spacingLeft=4;spacingRight=4;overflow=hidden;points=[[0,0.5],[1,0.5]];portConstraint=eastwest;rotatable=0;whiteSpace=wrap;html=1;" vertex="1" parent="wc7gYVsaRYlRubkSwobz-68">
          <mxGeometry y="60" width="140" height="30" as="geometry" />
        </mxCell>
        <mxCell id="wc7gYVsaRYlRubkSwobz-71" value="止损" style="text;strokeColor=none;fillColor=none;align=left;verticalAlign=middle;spacingLeft=4;spacingRight=4;overflow=hidden;points=[[0,0.5],[1,0.5]];portConstraint=eastwest;rotatable=0;whiteSpace=wrap;html=1;" vertex="1" parent="wc7gYVsaRYlRubkSwobz-68">
          <mxGeometry y="90" width="140" height="30" as="geometry" />
        </mxCell>
        <mxCell id="wc7gYVsaRYlRubkSwobz-76" value="position单" style="ellipse;whiteSpace=wrap;html=1;" vertex="1" parent="1">
          <mxGeometry x="1060" y="110" width="120" height="80" as="geometry" />
        </mxCell>
        <mxCell id="wc7gYVsaRYlRubkSwobz-80" value="一个产品对应一个position单&lt;br&gt;一个position单是所有trade的汇总&lt;br&gt;有3种情况造成position直接为0：&lt;br&gt;1.强平&lt;br&gt;2.触发止盈止损价格&lt;br&gt;3.用户下与当前仓位相反方向的单，并成交" style="strokeWidth=2;html=1;shape=mxgraph.flowchart.annotation_1;align=left;pointerEvents=1;direction=south;" vertex="1" parent="1">
          <mxGeometry x="1020" y="190" width="240" height="100" as="geometry" />
        </mxCell>
        <mxCell id="wc7gYVsaRYlRubkSwobz-82" value="&lt;span style=&quot;&quot;&gt;设定为1个订单对应1个trade单&lt;br&gt;&lt;/span&gt;&lt;span style=&quot;&quot;&gt;实际情况是1对1或者1对多&lt;br&gt;&lt;/span&gt;&lt;span style=&quot;&quot;&gt;分为加仓和减仓（平仓）&lt;br&gt;&lt;/span&gt;&lt;span style=&quot;&quot;&gt;trade单相当于position单的轨迹&lt;br&gt;&lt;/span&gt;" style="strokeWidth=2;html=1;shape=mxgraph.flowchart.annotation_1;align=left;pointerEvents=1;direction=south;" vertex="1" parent="1">
          <mxGeometry x="660" y="340" width="175" height="75" as="geometry" />
        </mxCell>
        <mxCell id="wc7gYVsaRYlRubkSwobz-83" value="已平仓单" style="ellipse;whiteSpace=wrap;html=1;" vertex="1" parent="1">
          <mxGeometry x="1060" y="335" width="120" height="80" as="geometry" />
        </mxCell>
        <mxCell id="wc7gYVsaRYlRubkSwobz-85" value="trade单中，&lt;br&gt;造成仓位绝对值减小的单，&lt;br&gt;就是已平仓单" style="strokeWidth=2;html=1;shape=mxgraph.flowchart.annotation_1;align=left;pointerEvents=1;direction=south;" vertex="1" parent="1">
          <mxGeometry x="1027.5" y="415" width="185" height="85" as="geometry" />
        </mxCell>
        <mxCell id="wc7gYVsaRYlRubkSwobz-87" value="product&lt;br&gt;size&lt;br&gt;average_price&lt;br&gt;margin_frozen&lt;br&gt;margin_available&lt;br&gt;unpl&lt;br&gt;today_pl&lt;br&gt;liquidation_price" style="strokeWidth=2;html=1;shape=mxgraph.flowchart.annotation_1;align=left;pointerEvents=1;" vertex="1" parent="1">
          <mxGeometry x="320" y="550" width="60" height="140" as="geometry" />
        </mxCell>
        <mxCell id="wc7gYVsaRYlRubkSwobz-88" value="trade_id&lt;br&gt;order_id（关联的订单）&lt;br&gt;product&lt;br&gt;dir&lt;br&gt;type:open/close&lt;br&gt;time&lt;br&gt;pl&lt;br&gt;price&lt;br&gt;size&lt;br&gt;fee" style="strokeWidth=2;html=1;shape=mxgraph.flowchart.annotation_1;align=left;pointerEvents=1;" vertex="1" parent="1">
          <mxGeometry x="320" y="340" width="50" height="168" as="geometry" />
        </mxCell>
      </root>
    </mxGraphModel>
  </diagram>
</mxfile>
